<?xml version="1.0" encoding="utf-8"?>
<!-- Generator: Adobe Illustrator 16.0.0, SVG Export Plug-In . SVG Version: 6.00 Build 0)  -->
<!DOCTYPE svg PUBLIC "-//W3C//DTD SVG 1.1//EN" "http://www.w3.org/Graphics/SVG/1.1/DTD/svg11.dtd">
<svg version="1.1" id="Layer_1" xmlns="http://www.w3.org/2000/svg" xmlns:xlink="http://www.w3.org/1999/xlink" x="0px" y="0px"
	 width="50px" height="50px" viewBox="0 0 50 50" enable-background="new 0 0 50 50" xml:space="preserve">
<g>
	<path d="M26.989,47.473c-0.417-0.082-1.479-0.314-1.16-2.146c0.32-1.831,0.265-2.623,0.188-3.822
		c-0.078-1.2-0.258-20.679-0.214-21.587c0.044-0.907-0.269-2.107,2.325-5.712c1.064-1.482,0.765-2.106,0.922-3.751
		c0.1-1.038,0.133-4.178,0.125-5.101h-0.025c-0.179-0.22-0.225-1.076,0.022-1.367h0.033c0.016-0.394-0.016-0.769-0.016-0.934
		c0-0.198,0.21-0.553,0.521-0.553h3.261c0.311,0,0.521,0.355,0.521,0.553c0,0.165-0.029,0.541-0.016,0.934h0.034
		c0.248,0.291,0.202,1.146,0.021,1.367h-0.023c-0.009,0.923,0.024,4.063,0.125,5.101c0.156,1.645-0.145,2.269,0.922,3.751
		c2.593,3.604,2.281,4.805,2.326,5.712c0.043,0.909-0.137,20.387-0.215,21.587c-0.076,1.199-0.133,1.991,0.188,3.822
		c0.32,1.83-0.742,2.063-1.16,2.146H26.989z"/>
	<path d="M18.874,39.809c2.557-0.365,4.539-3.041,4.539-9.203H13.086c0,6.162,1.982,8.838,4.539,9.203v6.911h-2.588v0.78h6.424
		v-0.78h-2.588L18.874,39.809L18.874,39.809z"/>
</g>
</svg>
