<?xml version="1.0" encoding="utf-8"?>
<!-- Generator: Adobe Illustrator 16.0.0, SVG Export Plug-In . SVG Version: 6.00 Build 0)  -->
<!DOCTYPE svg PUBLIC "-//W3C//DTD SVG 1.1//EN" "http://www.w3.org/Graphics/SVG/1.1/DTD/svg11.dtd">
<svg version="1.1" id="Layer_1" xmlns="http://www.w3.org/2000/svg" xmlns:xlink="http://www.w3.org/1999/xlink" x="0px" y="0px"
	 width="50px" height="50px" viewBox="0 0 50 50" enable-background="new 0 0 50 50" xml:space="preserve">
<path d="M45.873,11.175H4.127c-0.898,0-1.627,0.728-1.627,1.626v24.398c0,0.897,0.729,1.625,1.627,1.625h41.746
	c0.898,0,1.627-0.728,1.627-1.625V12.801C47.5,11.903,46.771,11.175,45.873,11.175z M38.686,17.296h2.541v2.541h-2.541V17.296z
	 M38.686,20.455h2.541v2.541h-2.541V20.455z M38.686,23.612h2.541v2.541h-2.541V23.612z M35.438,17.296h2.543v2.541h-2.543V17.296z
	 M35.438,20.455h2.543v2.541h-2.543V20.455z M32.591,35.572h-2.813c0.445-0.251,0.757-0.842,0.757-1.529h-5.288
	c2.704-1.652,4.475-4.365,4.475-7.438H8.576c0,3.073,1.771,5.787,4.475,7.438H7.764c0,0.688,0.312,1.278,0.754,1.529H5.753V14.427
	h26.838V35.572L32.591,35.572z M35.438,23.612h2.543v2.541h-2.543V23.612z M39.889,34.736c-1.535,0-2.779-1.244-2.779-2.777
	c0-1.535,1.244-2.779,2.779-2.779c1.533,0,2.777,1.244,2.777,2.779C42.666,33.492,41.422,34.736,39.889,34.736z M44.473,26.153
	h-2.541v-2.541h2.541V26.153z M44.473,22.996h-2.541v-2.541h2.541V22.996z M44.473,19.837h-2.541v-2.541h2.541V19.837z"/>
</svg>
