<?xml version="1.0" encoding="utf-8"?>
<!-- Generator: Adobe Illustrator 16.0.0, SVG Export Plug-In . SVG Version: 6.00 Build 0)  -->
<!DOCTYPE svg PUBLIC "-//W3C//DTD SVG 1.1//EN" "http://www.w3.org/Graphics/SVG/1.1/DTD/svg11.dtd">
<svg version="1.1" id="Layer_1" xmlns="http://www.w3.org/2000/svg" xmlns:xlink="http://www.w3.org/1999/xlink" x="0px" y="0px"
	 width="50px" height="50px" viewBox="0 0 50 50" enable-background="new 0 0 50 50" xml:space="preserve">
<circle fill="none" cx="-288.559" cy="-272.708" r="0.609"/>
<rect x="-300.667" y="-274.75" fill="none" width="5.333" height="0.833"/>
<circle fill="none" cx="-288.559" cy="-274.773" r="0.61"/>
<circle fill="none" cx="-288.559" cy="-276.837" r="0.61"/>
<path d="M42.857,44.586l-1.126-5.896c-0.281-1.479-1.79-2.937-3.359-3.243l-6.47-1.271l-1.102-2.256
	c-0.052-0.107-0.148-0.189-0.264-0.226c-0.104-0.032-0.295-0.006-0.322-0.021c-0.004-0.096-0.008-0.192-0.01-0.289
	c0.356-0.621,0.633-1.305,0.815-2.002c0.167-0.076,0.346-0.202,0.518-0.404c0.161-0.188,0.293-0.393,0.391-0.607
	c0.125-0.273,0.236-0.554,0.321-0.842l0.072-0.242c0.113-0.395,0.224-0.787,0.401-1.162c0.315-0.666,0.273-1.35,0.201-1.873
	c-0.055-0.398-0.219-0.7-0.492-0.909c0.149-0.577,0.266-1.215,0.333-1.884h0.235v-6.401c0.188,0.025,0.376,0.058,0.572,0.058
	c2.413,0,4.37-1.958,4.37-4.371c0-2.415-1.958-4.372-4.37-4.372c-0.839,0-1.613,0.248-2.277,0.656
	c-0.921-2.602-3.374-4.47-6.275-4.527V2.5C25.014,2.5,25.006,2.5,25,2.501c-0.007,0-0.014-0.002-0.021-0.002v0.004
	c-2.902,0.057-5.354,1.926-6.275,4.527c-0.665-0.409-1.44-0.656-2.277-0.656c-2.414,0-4.371,1.958-4.371,4.372
	s1.958,4.371,4.371,4.371c0.195,0,0.382-0.033,0.572-0.058v6.401h0.235c0.068,0.669,0.185,1.307,0.333,1.884
	c-0.273,0.209-0.438,0.511-0.492,0.909c-0.072,0.522-0.114,1.207,0.201,1.872c0.178,0.375,0.288,0.77,0.402,1.164l0.072,0.242
	c0.085,0.287,0.197,0.567,0.321,0.842c0.098,0.213,0.23,0.418,0.391,0.606c0.171,0.203,0.35,0.329,0.517,0.403
	c0.184,0.699,0.459,1.382,0.816,2.002c-0.002,0.104-0.006,0.203-0.01,0.305c-0.185,0.002-0.315,0.003-0.321,0.006
	c-0.115,0.036-0.211,0.117-0.264,0.225l-1.102,2.256l-6.469,1.271c-1.571,0.307-3.078,1.762-3.36,3.244l-1.126,5.896
	c-0.141,0.734,0.03,1.441,0.483,1.99C8.111,47.164,8.876,47.5,9.727,47.5h30.548c0.851,0,1.615-0.336,2.102-0.922
	C42.828,46.028,42.999,45.322,42.857,44.586z M19.635,43.349h-5.918v-0.925h5.918V43.349z M24.283,35.822l-0.82,1.678l-4.507-2.606
	l-0.188-0.108l0.062-0.125l0.099-0.203l0.239-0.49l0.219-0.447c0.041-0.049,0.065-0.102,0.077-0.158l0.313-0.641l0.674,0.39
	l0.781,0.452l0.571,0.33l0.571,0.331l0.929,0.536l1.169,0.677L24.283,35.822z M27.153,45.365c-0.372,0-0.676-0.303-0.676-0.676
	c0-0.374,0.304-0.676,0.676-0.676c0.374,0,0.678,0.302,0.678,0.676C27.831,45.063,27.527,45.365,27.153,45.365z M27.153,43.074
	c-0.372,0-0.676-0.303-0.676-0.676c0-0.374,0.304-0.677,0.676-0.677c0.374,0,0.678,0.304,0.678,0.677
	C27.831,42.771,27.527,43.074,27.153,43.074z M27.153,40.783c-0.372,0-0.676-0.303-0.676-0.676c0-0.374,0.304-0.677,0.676-0.677
	c0.374,0,0.678,0.303,0.678,0.677C27.831,40.479,27.527,40.783,27.153,40.783z M31.18,34.814l-0.057,0.033l-0.079,0.045L26.537,37.5
	l-0.829-1.699l-0.18-0.365l1.234-0.714l0.863-0.499l0.571-0.331l0.57-0.33l0.91-0.526l0.545-0.315l0.112,0.231l0.496,1.016
	l0.239,0.488l0.16,0.33L31.18,34.814z"/>
</svg>
