<?xml version="1.0" encoding="utf-8"?>
<!-- Generator: Adobe Illustrator 16.0.0, SVG Export Plug-In . SVG Version: 6.00 Build 0)  -->
<!DOCTYPE svg PUBLIC "-//W3C//DTD SVG 1.1//EN" "http://www.w3.org/Graphics/SVG/1.1/DTD/svg11.dtd">
<svg version="1.1" id="Layer_1" xmlns="http://www.w3.org/2000/svg" xmlns:xlink="http://www.w3.org/1999/xlink" x="0px" y="0px"
	 width="50px" height="50px" viewBox="0 0 50 50" enable-background="new 0 0 50 50" xml:space="preserve">
<path d="M6.71,30.368l9.313,9.313l-4.211,4.21L2.5,34.578L6.71,30.368z M47.5,24.928c0,1.177-0.953,2.131-2.129,2.131h-3.955
	l-9.33,9.329H17.859l-2.494,1.494L8.374,30.82c0,0,2.502-2.467,4.619-3.761H10.27c-1.178,0-2.129-0.954-2.129-2.13h4.047
	C13,18.575,21.516,12.347,29.781,12.164c1.507-1.844,3.964-2.795,6.439-2.217c0.981,0.229,1.846,0.689,2.577,1.286l3.28-2.756
	c-0.018-0.023-0.04-0.043-0.057-0.068c-0.438-0.706-0.22-1.635,0.485-2.073c0.705-0.439,1.632-0.223,2.069,0.483
	c0.244,0.396,0.277,0.856,0.143,1.265c0.426,0.061,0.825,0.296,1.068,0.69c0.438,0.706,0.219,1.633-0.486,2.071
	c-0.705,0.439-1.631,0.223-2.068-0.482c-0.017-0.026-0.022-0.054-0.037-0.081l-2.959,2.556c0.758,1.227,1.074,2.708,0.875,4.219
	c1.687,2.159,2.646,4.883,2.82,7.872H47.5V24.928z M37.432,27.059h-5.798c-0.595,1.013-1.928,2.661-4.304,2.661
	c-1.684,0-5.896,0-5.896,0s2.219,2.063,3.162,2.063c2.016,0,6.646,0,6.646,0S34.945,28.628,37.432,27.059z"/>
</svg>
