<?xml version="1.0" encoding="utf-8"?>
<!-- Generator: Adobe Illustrator 16.0.0, SVG Export Plug-In . SVG Version: 6.00 Build 0)  -->
<!DOCTYPE svg PUBLIC "-//W3C//DTD SVG 1.1//EN" "http://www.w3.org/Graphics/SVG/1.1/DTD/svg11.dtd">
<svg version="1.1" id="Layer_1" xmlns="http://www.w3.org/2000/svg" xmlns:xlink="http://www.w3.org/1999/xlink" x="0px" y="0px"
	 width="50px" height="50px" viewBox="0 0 50 50" enable-background="new 0 0 50 50" xml:space="preserve">
<path d="M39.504,27.949c0.626,0.223,1.292,0.368,1.996,0.368c3.311,0,6-2.692,6-6c0-2.208-1.21-4.12-2.992-5.161
	c0.104-0.822,0.176-1.655,0.176-2.504H5.205c0,7.382,4.061,13.809,10.063,17.194H2.5c0,1.933,1.564,3.501,3.5,3.501h37.891
	c1.933,0,3.5-1.569,3.5-3.501H34.624C36.454,30.812,38.096,29.49,39.504,27.949z M45.457,22.317c0,2.183-1.773,3.958-3.957,3.958
	c-0.198,0-0.391-0.029-0.582-0.059c1.475-2.032,2.563-4.35,3.18-6.862C44.923,20.081,45.457,21.132,45.457,22.317z"/>
</svg>
