<?xml version="1.0" encoding="utf-8"?>
<!-- Generator: Adobe Illustrator 16.0.0, SVG Export Plug-In . SVG Version: 6.00 Build 0)  -->
<!DOCTYPE svg PUBLIC "-//W3C//DTD SVG 1.1//EN" "http://www.w3.org/Graphics/SVG/1.1/DTD/svg11.dtd">
<svg version="1.1" id="Layer_1" xmlns="http://www.w3.org/2000/svg" xmlns:xlink="http://www.w3.org/1999/xlink" x="0px" y="0px"
	 width="50px" height="50px" viewBox="0 0 50 50" enable-background="new 0 0 50 50" xml:space="preserve">
<path d="M38.132,14.69c-0.563,0-1.11,0.059-1.646,0.153C35.316,9.574,30.622,5.63,25,5.63s-10.317,3.943-11.487,9.213
	c-0.535-0.095-1.083-0.153-1.645-0.153c-5.174,0-9.368,4.194-9.368,9.368c0,3.85,2.324,7.152,5.644,8.594l4.294,9.703h-1.445
	c0,1.111,0.902,2.014,2.014,2.014h23.987c1.111,0,2.013-0.9,2.013-2.014h-1.444l4.293-9.703c3.32-1.439,5.645-4.744,5.645-8.594
	C47.5,18.885,43.307,14.69,38.132,14.69z M24.869,8.038c1.771,0,3.418,0.516,4.814,1.395c-1.008-0.386-2.097-0.606-3.238-0.606
	c-4.138,0-7.621,2.776-8.705,6.565h-1.766C16.772,11.204,20.448,8.038,24.869,8.038z M14.583,42.01l-3.831-8.655
	c0.367,0.044,0.738,0.071,1.116,0.071c1.959,0,3.773-0.605,5.277-1.635l0.268,10.219H14.583z M23.862,42.01h-3.965l-2.431-10.455
	c0.339-0.254,0.667-0.521,0.969-0.818c1.643,1.615,3.878,2.623,6.351,2.68L23.862,42.01z M30.104,42.01H26.45L25.525,33.4
	c2.349-0.13,4.468-1.115,6.041-2.664c0.303,0.297,0.629,0.564,0.97,0.818L30.104,42.01z M35.417,42.01h-2.83l0.269-10.219
	c1.502,1.028,3.316,1.635,5.276,1.635c0.378,0,0.749-0.027,1.116-0.071L35.417,42.01z"/>
</svg>
