<?xml version="1.0" encoding="utf-8"?>
<!-- Generator: Adobe Illustrator 16.0.0, SVG Export Plug-In . SVG Version: 6.00 Build 0)  -->
<!DOCTYPE svg PUBLIC "-//W3C//DTD SVG 1.1//EN" "http://www.w3.org/Graphics/SVG/1.1/DTD/svg11.dtd">
<svg version="1.1" id="Layer_1" xmlns="http://www.w3.org/2000/svg" xmlns:xlink="http://www.w3.org/1999/xlink" x="0px" y="0px"
	 width="50px" height="50px" viewBox="0 0 50 50" enable-background="new 0 0 50 50" xml:space="preserve">
<path d="M41.734,7.314l-1.356-2.121l-7.573,4.848c-0.031-0.001-0.061-0.008-0.091-0.008h-7.051C25.068,5.785,21.421,2.5,17.011,2.5
	c-4.823,0-8.745,3.924-8.745,8.747c0,4.492,3.4,8.197,7.762,8.688v25.677c0,1.043,0.847,1.889,1.89,1.889h14.798
	c1.043,0,1.889-0.846,1.889-1.889V11.923c0-0.013-0.004-0.025-0.004-0.039L41.734,7.314z M17.438,4.282V10.1
	c-0.326,0.086-0.623,0.251-0.854,0.483V4.281c-3.515,0.215-6.321,3.021-6.535,6.536h6.343c-0.181,0.247-0.297,0.54-0.339,0.857
	h-6.004c0.202,3.324,2.731,5.986,5.979,6.448v0.82c-3.819-0.486-6.783-3.749-6.783-7.698c0-4.281,3.484-7.765,7.767-7.765
	c3.869,0,7.077,2.846,7.662,6.553h-0.819C23.299,6.897,20.686,4.479,17.438,4.282z M17.969,24.988V12.184h13.447l-5.637,12.804
	H17.969z M32.661,24.988h-4.129l4.129-9.376V24.988z"/>
</svg>
