<?xml version="1.0" encoding="utf-8"?>
<!-- Generator: Adobe Illustrator 16.0.0, SVG Export Plug-In . SVG Version: 6.00 Build 0)  -->
<!DOCTYPE svg PUBLIC "-//W3C//DTD SVG 1.1//EN" "http://www.w3.org/Graphics/SVG/1.1/DTD/svg11.dtd">
<svg version="1.1" id="Layer_1" xmlns="http://www.w3.org/2000/svg" xmlns:xlink="http://www.w3.org/1999/xlink" x="0px" y="0px"
	 width="50px" height="50px" viewBox="0 0 50 50" enable-background="new 0 0 50 50" xml:space="preserve">
<path d="M17.831,37.198l-4.772,4.772L2.5,31.414l4.773-4.773L17.831,37.198z M47.5,22.01L36.046,33.465h-16.13l-2.831,1.693
	L9.16,27.151c0,0,5.21-5.143,7.482-5.143c0.32,0,0.674,0,1.051,0c-0.764-0.406-1.287-1.2-1.287-2.124h8.803
	c-4.137-2.334-6.938-6.765-6.938-11.855h27.225c0,0.587-0.051,1.159-0.121,1.728c1.227,0.718,2.063,2.037,2.063,3.56
	c0,2.28-1.854,4.139-4.138,4.139c-0.483,0-0.942-0.102-1.378-0.255c-0.972,1.063-2.102,1.975-3.363,2.687h8.807
	c0,0.85-0.443,1.594-1.106,2.024C46.943,21.952,47.5,22.01,47.5,22.01z M42.896,16.004c0.133,0.021,0.266,0.041,0.401,0.041
	c1.505,0,2.729-1.225,2.729-2.729c0-0.816-0.368-1.543-0.938-2.044C44.667,13.006,43.915,14.604,42.896,16.004z M43.12,22.301
	h-7.279c-0.418,0.897-1.942,3.605-5.188,3.605c-1.908,0-6.688,0-6.688,0s2.518,2.337,3.587,2.337c2.283,0,7.532,0,7.532,0
	S40.452,23.678,43.12,22.301z"/>
</svg>
