<?xml version="1.0" encoding="utf-8"?>
<!-- Generator: Adobe Illustrator 16.0.0, SVG Export Plug-In . SVG Version: 6.00 Build 0)  -->
<!DOCTYPE svg PUBLIC "-//W3C//DTD SVG 1.1//EN" "http://www.w3.org/Graphics/SVG/1.1/DTD/svg11.dtd">
<svg version="1.1" id="Layer_1" xmlns="http://www.w3.org/2000/svg" xmlns:xlink="http://www.w3.org/1999/xlink" x="0px" y="0px"
	 width="50px" height="50px" viewBox="0 0 50 50" enable-background="new 0 0 50 50" xml:space="preserve">
<path d="M45.23,24.439c-0.525-8.071-6.996-14.56-15.197-15.313c0.066-0.182,0.109-0.375,0.109-0.58c0-0.942-0.766-1.705-1.705-1.705
	c-0.941,0-1.707,0.763-1.707,1.705c0,0.205,0.043,0.398,0.107,0.58c-8.198,0.753-14.669,7.242-15.196,15.313H9.371
	c0,1.139,0.924,2.063,2.064,2.063h1.851c-2.144,1.083-5.095,3.995-5.095,3.995l6.771,6.841l2.418-1.447H31.16l9.389-9.389h4.889
	c1.139,0,2.063-0.924,2.063-2.063H45.23z M30.344,31.429c0,0-4.486,0-6.438,0c-0.914,0-3.063-1.997-3.063-1.997s4.082,0,5.714,0
	c2.605,0,3.916-2.049,4.359-2.93h6.01C34.57,27.832,30.344,31.429,30.344,31.429z M6.58,30.061l9.021,9.021l-4.08,4.078L2.5,34.139
	L6.58,30.061z"/>
</svg>
