<?xml version="1.0" encoding="utf-8"?>
<!-- Generator: Adobe Illustrator 16.0.0, SVG Export Plug-In . SVG Version: 6.00 Build 0)  -->
<!DOCTYPE svg PUBLIC "-//W3C//DTD SVG 1.1//EN" "http://www.w3.org/Graphics/SVG/1.1/DTD/svg11.dtd">
<svg version="1.1" id="Layer_1" xmlns="http://www.w3.org/2000/svg" xmlns:xlink="http://www.w3.org/1999/xlink" x="0px" y="0px"
	 width="50px" height="50px" viewBox="0 0 50 50" enable-background="new 0 0 50 50" xml:space="preserve">
<path d="M32.748,40.911l-7.399,2.664c-0.113,0.041-0.232,0.062-0.35,0.062s-0.237-0.021-0.35-0.062l-7.697-2.771
	c2.616-2.811,5.431-5.64,8.047-8.45C27.648,35.199,30.099,38.063,32.748,40.911z M47.062,6.55c-0.276-0.192-0.628-0.241-0.942-0.126
	l-21.121,7.604L3.877,6.424C3.562,6.31,3.21,6.358,2.936,6.55C2.662,6.745,2.499,7.059,2.499,7.395v27.481
	c0,0.435,0.272,0.822,0.681,0.969l11.283,4.063c3.099-2.885,6.198-5.77,9.297-8.654c-0.977-1.049-1.953-2.1-2.93-3.148
	c-2.063,1.479-5.119,0.917-6.957-1.352c-1.976-2.394-3.682-6.674-2.031-8.427c1.753-1.652,6.034,0.056,8.427,2.031
	c2.269,1.839,2.832,4.892,1.352,6.956c1.062,0.989,2.315,1.944,3.378,2.934c0.996-0.927,1.796-1.818,2.791-2.743
	c-0.84-1.434-0.283-3.444,1.084-4.591c1.563-1.312,7.358-6.287,7.516-6.129c0.154,0.155-3.91,3.995-6.625,6.718l0.453,0.452
	c2.898-2.54,6.992-6.35,7.148-6.195c0.155,0.156-3.783,4.122-6.408,6.936l0.449,0.45c2.811-2.629,6.776-6.567,6.932-6.413
	c0.154,0.157-3.655,4.249-6.195,7.148l0.449,0.449c2.724-2.715,6.563-6.782,6.717-6.626c0.156,0.157-6.117,7.509-6.125,7.52
	c-0.001-0.001,1.331-1.564-0.004-0.004c-1.275,1.493-3.182,1.945-4.59,1.084c-0.914,0.982-1.827,1.963-2.741,2.944
	c3.138,2.921,6.274,5.84,9.412,8.761l11.56-4.162c0.409-0.146,0.682-0.534,0.682-0.969V7.395C47.498,7.06,47.336,6.745,47.062,6.55z
	"/>
</svg>
