<?xml version="1.0" encoding="utf-8"?>
<!-- Generator: Adobe Illustrator 16.0.0, SVG Export Plug-In . SVG Version: 6.00 Build 0)  -->
<!DOCTYPE svg PUBLIC "-//W3C//DTD SVG 1.1//EN" "http://www.w3.org/Graphics/SVG/1.1/DTD/svg11.dtd">
<svg version="1.1" id="Layer_1" xmlns="http://www.w3.org/2000/svg" xmlns:xlink="http://www.w3.org/1999/xlink" x="0px" y="0px"
	 width="50px" height="50px" viewBox="0 0 50 50" enable-background="new 0 0 50 50" xml:space="preserve">
<path d="M20.378,30.357h-0.546v-1.861h0.424c0.433,0,0.615,0.174,0.615,0.736v0.527C20.872,30.21,20.699,30.357,20.378,30.357z
	 M26.997,26.029h-0.458v1.861h0.373c0.355,0,0.57-0.156,0.57-0.642V26.65C27.482,26.22,27.334,26.029,26.997,26.029z M20.777,26.99
	v-0.338c0-0.433-0.147-0.623-0.485-0.623h-0.459v1.601h0.373C20.56,27.63,20.777,27.475,20.777,26.99z M39.178,27.25v-0.598
	c0-0.433-0.146-0.623-0.484-0.623h-0.459v1.861h0.373C38.961,27.891,39.178,27.734,39.178,27.25z M34.665,29.301h0.918l-0.46-3.064
	L34.665,29.301z M47.5,12.371v25.258c0,1.283-1.04,2.323-2.323,2.323H4.823c-1.283,0-2.323-1.04-2.323-2.323V12.371
	c0-1.283,1.04-2.323,2.323-2.323h40.354C46.46,10.048,47.5,11.088,47.5,12.371z M37.282,31.225h0.952v-2.468h0.33
	c0.432,0,0.623,0.207,0.623,0.771v0.953c0,0.494,0.035,0.588,0.086,0.744h0.971c-0.096-0.226-0.104-0.441-0.104-0.735v-0.937
	c0-0.633-0.156-1.091-0.634-1.291c0.425-0.197,0.624-0.604,0.624-1.229v-0.476c0-0.936-0.424-1.395-1.412-1.395h-1.437V31.225z
	 M30.333,29.77c0,0.97,0.485,1.523,1.42,1.523s1.42-0.555,1.42-1.523v-0.807h-0.901v0.867c0,0.434-0.188,0.589-0.494,0.589
	c-0.301,0-0.492-0.156-0.492-0.589v-3.273c0-0.433,0.191-0.598,0.492-0.598c0.305,0,0.494,0.165,0.494,0.598v0.649h0.901v-0.589
	c0-0.969-0.485-1.523-1.42-1.523s-1.42,0.555-1.42,1.523V29.77z M22.398,31.225h2.597v-0.867H23.35v-1.774h1.308v-0.866H23.35
	v-1.688h1.645v-0.866h-2.597V31.225z M10.311,25.163H8.986l-0.65,4.304l-0.702-4.304H6.309v6.062H7.14v-4.287l0.71,4.287h0.901
	l0.658-4.348v4.348h0.901L10.311,25.163L10.311,25.163z M13.603,25.163h-2.598v6.062h2.598v-0.867h-1.646v-1.774h1.308v-0.866
	h-1.308v-1.688h1.646V25.163z M13.695,21.952c0.642,0,1.162-0.52,1.162-1.162v-5.661c0-0.641-0.52-1.161-1.162-1.161H7.453
	c-0.642,0-1.161,0.52-1.161,1.161v5.661c0,0.642,0.52,1.162,1.161,1.162H13.695z M18.185,25.163h-1.324l-0.649,4.304l-0.702-4.304
	h-1.324v6.062h0.831v-4.287l0.709,4.287h0.901l0.658-4.348v4.348h0.9V25.163z M18.88,31.225h1.499c0.952,0,1.446-0.502,1.446-1.438
	v-0.494c0-0.641-0.199-1.1-0.709-1.298c0.424-0.2,0.614-0.599,0.614-1.22v-0.217c0-0.936-0.425-1.395-1.412-1.395H18.88V31.225z
	 M26.706,33.782h-7.693v1.887h7.693V33.782z M27.49,29.525v0.955c0,0.492,0.035,0.588,0.087,0.742h0.97
	c-0.096-0.225-0.104-0.44-0.104-0.734v-0.937c0-0.633-0.155-1.091-0.633-1.29c0.424-0.199,0.625-0.605,0.625-1.23v-0.477
	c0-0.935-0.426-1.394-1.412-1.394h-1.438v6.062h0.953v-2.468h0.329C27.3,28.756,27.49,28.963,27.49,29.525z M35.198,33.782h-7.694
	v1.887h7.694V33.782z M35.876,31.225h0.961l-0.97-6.062h-1.395l-0.969,6.062h0.875l0.165-1.101h1.169L35.876,31.225z M43.689,33.782
	h-7.692v1.887h7.692V33.782z M43.689,26.661c0-0.97-0.465-1.498-1.418-1.498h-1.508v6.062h1.508c0.953,0,1.418-0.528,1.418-1.498
	V26.661z M42.254,26.029h-0.538v4.328h0.538c0.303,0,0.484-0.155,0.484-0.588v-3.152C42.738,26.186,42.557,26.029,42.254,26.029z"/>
</svg>
