<?xml version="1.0" encoding="utf-8"?>
<!-- Generator: Adobe Illustrator 16.0.0, SVG Export Plug-In . SVG Version: 6.00 Build 0)  -->
<!DOCTYPE svg PUBLIC "-//W3C//DTD SVG 1.1//EN" "http://www.w3.org/Graphics/SVG/1.1/DTD/svg11.dtd">
<svg version="1.1" id="Layer_1" xmlns="http://www.w3.org/2000/svg" xmlns:xlink="http://www.w3.org/1999/xlink" x="0px" y="0px"
	 width="50px" height="50px" viewBox="0 0 50 50" enable-background="new 0 0 50 50" xml:space="preserve">
<g>
	<path d="M34.738,26.893c0.005-0.014,3.723-8.698,3.529-8.799c-0.188-0.099-2.59,4.812-4.341,8.137l-0.55-0.289
		c1.527-3.444,3.895-8.371,3.702-8.471c-0.188-0.099-2.744,4.729-4.603,7.999l-0.55-0.289c1.632-3.389,4.153-8.235,3.964-8.335
		c-0.191-0.099-2.904,4.647-4.871,7.86l-0.553-0.291c1.742-3.331,4.417-8.096,4.229-8.195c-0.192-0.101-4.153,6.226-5.231,7.904
		c-0.94,1.467-0.876,3.505,0.325,4.599c-1.643,2.874-3.285,5.747-4.928,8.621c-1.686-2.872-3.372-5.744-5.059-8.615
		c1.963-1.52,2.291-4.537,0.681-6.894c-1.689-2.519-5.22-5.316-7.323-4.26c-2.037,1.179-1.638,5.666-0.457,8.46
		c1.087,2.638,3.792,4.021,6.137,3.213c1.647,3.33,3.293,6.659,4.938,9.988c-0.72,1.261-1.44,2.521-2.161,3.783
		c-8.514-1.591-14.961-9.047-14.961-18.021C6.656,14.868,14.868,6.655,25,6.655s18.344,8.212,18.344,18.344
		c0,9.034-6.535,16.524-15.134,18.046c-0.748-1.273-1.495-2.545-2.241-3.818c1.6-3.33,3.197-6.66,4.797-9.992
		c1.564,0.394,3.211-0.582,3.967-2.347C35.525,25.043,34.736,26.893,34.738,26.893z M26.689,45.121
		c-0.56,0.047-1.119,0.086-1.689,0.086c-0.626,0-1.244-0.038-1.856-0.094c-0.349,0.726-0.698,1.451-1.045,2.178
		C23.051,47.415,24.016,47.5,25,47.5c0.939,0,1.861-0.077,2.771-0.189C27.411,46.582,27.05,45.852,26.689,45.121z M25,2.5
		C12.594,2.5,2.5,12.594,2.5,25c0,10.494,7.231,19.307,16.966,21.783c0.393-0.688,0.785-1.374,1.178-2.061
		C11.59,42.723,4.792,34.645,4.792,25c0-11.143,9.065-20.207,20.207-20.207c11.142,0,20.207,9.065,20.207,20.207
		c0,9.695-6.868,17.813-15.992,19.757c0.401,0.685,0.804,1.37,1.206,2.056C40.212,44.376,47.5,35.535,47.5,25
		C47.5,12.594,37.406,2.5,25,2.5z M25.79,43.305c-0.3-0.609-0.601-1.217-0.902-1.826c-0.29,0.606-0.581,1.211-0.871,1.815
		c0.328,0.017,0.652,0.049,0.983,0.049C25.267,43.344,25.525,43.314,25.79,43.305z"/>
</g>
</svg>
