<?xml version="1.0" encoding="utf-8"?>
<!-- Generator: Adobe Illustrator 16.0.0, SVG Export Plug-In . SVG Version: 6.00 Build 0)  -->
<!DOCTYPE svg PUBLIC "-//W3C//DTD SVG 1.1//EN" "http://www.w3.org/Graphics/SVG/1.1/DTD/svg11.dtd">
<svg version="1.1" id="Layer_1" xmlns="http://www.w3.org/2000/svg" xmlns:xlink="http://www.w3.org/1999/xlink" x="0px" y="0px"
	 width="50px" height="50px" viewBox="0 0 50 50" enable-background="new 0 0 50 50" xml:space="preserve">
<g>
	<path d="M45.058,25.879l2.406-10.92c0.18-0.816-0.336-1.624-1.152-1.803c-0.817-0.182-1.623,0.335-1.802,1.151l-2.145,9.733h-9.647
		c-0.835,0-1.512,0.677-1.512,1.513s0.677,1.513,1.512,1.513h0.573l-3.258,7.713c-0.325,0.771,0.035,1.657,0.805,1.982
		c0.191,0.081,0.392,0.12,0.588,0.12c0.59,0,1.15-0.348,1.394-0.925l2.973-7.038l4.717,0.001l2.971,7.037
		c0.327,0.77,1.215,1.127,1.982,0.805c0.77-0.325,1.13-1.212,0.805-1.982l-3.257-7.713h0.573
		C44.291,27.065,44.904,26.572,45.058,25.879z"/>
	<path d="M16.709,27.065h0.573c0.835,0,1.512-0.677,1.512-1.513s-0.677-1.513-1.512-1.513H7.635L5.49,14.307
		c-0.181-0.816-0.99-1.334-1.802-1.151c-0.815,0.179-1.332,0.987-1.152,1.803l2.406,10.92c0.153,0.693,0.767,1.187,1.477,1.187
		h0.573l-3.257,7.714c-0.325,0.77,0.035,1.656,0.805,1.981c0.768,0.324,1.656-0.036,1.982-0.805l2.971-7.037l4.717-0.001
		l2.972,7.038c0.244,0.577,0.804,0.925,1.394,0.925c0.196,0,0.396-0.039,0.588-0.12c0.77-0.325,1.13-1.212,0.805-1.981
		L16.709,27.065z"/>
	<path d="M27.363,33.854h-0.852V20.809h8.13c0.835,0,1.513-0.677,1.513-1.512s-0.678-1.513-1.513-1.513H15.357
		c-0.835,0-1.513,0.678-1.513,1.513c0,0.834,0.678,1.512,1.513,1.512h8.13v13.045h-0.852c-0.835,0-1.512,0.678-1.512,1.513
		s0.677,1.513,1.512,1.513h4.728c0.836,0,1.513-0.678,1.513-1.513S28.199,33.854,27.363,33.854z"/>
</g>
</svg>
