<?xml version="1.0" encoding="utf-8"?>
<!-- Generator: Adobe Illustrator 16.0.0, SVG Export Plug-In . SVG Version: 6.00 Build 0)  -->
<!DOCTYPE svg PUBLIC "-//W3C//DTD SVG 1.1//EN" "http://www.w3.org/Graphics/SVG/1.1/DTD/svg11.dtd">
<svg version="1.1" id="Layer_1" xmlns="http://www.w3.org/2000/svg" xmlns:xlink="http://www.w3.org/1999/xlink" x="0px" y="0px"
	 width="50px" height="50px" viewBox="0 0 50 50" enable-background="new 0 0 50 50" xml:space="preserve">
<path d="M17.482,5.743V3.679c0-0.651,0.528-1.179,1.18-1.179H31.34c0.65,0,1.18,0.528,1.18,1.179v2.064
	c0,0.651-0.527,1.179-1.18,1.179H18.663C18.01,6.922,17.482,6.394,17.482,5.743z M36.69,11.574v32.505
	c0,1.889-1.532,3.421-3.422,3.421H16.731c-1.89,0-3.422-1.532-3.422-3.421V11.574c0-1.889,1.532-3.421,3.422-3.421h16.537
	C35.158,8.152,36.69,9.685,36.69,11.574z M25.444,26.753l5.218-5.218c-1.397-1.259-3.213-2.056-5.218-2.161V26.753z M16.549,27.382
	h7.378l-5.218-5.218C17.451,23.562,16.653,25.377,16.549,27.382z M18.709,33.489l5.218-5.218h-7.378
	C16.653,30.275,17.451,32.091,18.709,33.489z M24.557,28.898l-5.218,5.219c1.398,1.26,3.214,2.056,5.218,2.16V28.898z
	 M24.557,19.375c-2.004,0.104-3.82,0.901-5.218,2.161l5.218,5.218V19.375z M30.664,34.117l-5.219-5.219v7.379
	C27.449,36.173,29.266,35.376,30.664,34.117z M33.451,28.271h-7.377l5.217,5.218C32.551,32.091,33.348,30.275,33.451,28.271z
	 M33.451,27.382c-0.104-2.004-0.9-3.82-2.16-5.218l-5.219,5.218H33.451z"/>
</svg>
