<?xml version="1.0" encoding="utf-8"?>
<!-- Generator: Adobe Illustrator 16.0.0, SVG Export Plug-In . SVG Version: 6.00 Build 0)  -->
<!DOCTYPE svg PUBLIC "-//W3C//DTD SVG 1.1//EN" "http://www.w3.org/Graphics/SVG/1.1/DTD/svg11.dtd">
<svg version="1.1" id="Layer_1" xmlns="http://www.w3.org/2000/svg" xmlns:xlink="http://www.w3.org/1999/xlink" x="0px" y="0px"
	 width="50px" height="50px" viewBox="0 0 50 50" enable-background="new 0 0 50 50" xml:space="preserve">
<path d="M41.102,11.198h-1.414V9.966c0-2.674-2.168-4.843-4.842-4.843h-4.703C29.857,3.629,28.552,2.5,26.977,2.5
	c-1.577,0-2.885,1.13-3.167,2.624h-4.703c-2.675,0-4.843,2.168-4.843,4.843v3.426L9.329,8.01L2.663,8.08l11.6,18.98v15.599
	c0,2.674,2.168,4.842,4.843,4.842h15.74c2.674,0,4.844-2.168,4.844-4.842v-8.295h1.412c3.438,0,6.235-2.797,6.235-6.234V17.434
	C47.337,13.995,44.54,11.198,41.102,11.198z M44.553,28.127c0,1.902-1.549,3.451-3.451,3.451h-1.414V13.981h1.414
	c1.901,0,3.45,1.548,3.45,3.451L44.553,28.127L44.553,28.127z"/>
</svg>
