<?xml version="1.0" encoding="utf-8"?>
<!-- Generator: Adobe Illustrator 16.0.0, SVG Export Plug-In . SVG Version: 6.00 Build 0)  -->
<!DOCTYPE svg PUBLIC "-//W3C//DTD SVG 1.1//EN" "http://www.w3.org/Graphics/SVG/1.1/DTD/svg11.dtd">
<svg version="1.1" id="Layer_1" xmlns="http://www.w3.org/2000/svg" xmlns:xlink="http://www.w3.org/1999/xlink" x="0px" y="0px"
	 width="50px" height="50px" viewBox="0 0 50 50" enable-background="new 0 0 50 50" xml:space="preserve">
<path d="M16.723,13.477v25.486c0,1.977-1.603,3.579-3.579,3.579H6.08c-1.976,0-3.579-1.603-3.579-3.579V13.477H16.723L16.723,13.477
	z M47.5,12.14v-1.103c0-1.977-1.604-3.579-3.58-3.579H23.073c-1.977,0-3.579,1.603-3.579,3.579v1.103H47.5z M16.723,12.14v-1.103
	c0-1.977-1.603-3.579-3.579-3.579H6.08c-1.976,0-3.579,1.603-3.579,3.579v1.103H16.723z M47.5,13.477v25.486
	c0,1.977-1.604,3.579-3.58,3.579H23.073c-1.977,0-3.579-1.603-3.579-3.579V13.477H47.5L47.5,13.477z M45.826,15.058H21.167v11.135
	h24.659V15.058z"/>
</svg>
