<?xml version="1.0" encoding="utf-8"?>
<!-- Generator: Adobe Illustrator 16.0.0, SVG Export Plug-In . SVG Version: 6.00 Build 0)  -->
<!DOCTYPE svg PUBLIC "-//W3C//DTD SVG 1.1//EN" "http://www.w3.org/Graphics/SVG/1.1/DTD/svg11.dtd">
<svg version="1.1" id="Layer_1" xmlns="http://www.w3.org/2000/svg" xmlns:xlink="http://www.w3.org/1999/xlink" x="0px" y="0px"
	 width="50px" height="50px" viewBox="0 0 50 50" enable-background="new 0 0 50 50" xml:space="preserve">
<path d="M30.01,24.38c-0.797-0.756-1.319-1.987-1.319-3.38c0-2.302,3.166-6.334,3.166-6.334s3.168,4.033,3.168,6.334
	c0,1.393-0.522,2.624-1.321,3.38c0.088-0.296,0.141-0.615,0.141-0.951c0-1.443-1.985-3.972-1.985-3.972s-1.986,2.529-1.986,3.972
	C29.87,23.765,29.922,24.084,30.01,24.38z M16.782,14.51c0-1.979,2.722-5.444,2.722-5.444s2.724,3.465,2.724,5.444
	c0,0.461-0.072,0.899-0.193,1.303c1.095-1.036,1.811-2.722,1.811-4.633c0-3.154-4.34-8.68-4.34-8.68s-4.34,5.526-4.34,8.68
	c0,1.911,0.716,3.597,1.811,4.633C16.854,15.409,16.782,14.971,16.782,14.51z M32.356,26.499v-4.667h-1.002v4.667H28.19V47.5h7.332
	V26.499H32.356z M20.188,12.323h-1.371v6.396h-4.34V47.5h10.051V18.718h-4.34V12.323z"/>
</svg>
